<?xml version="1.0" encoding="UTF-8" standalone="no"?>
<svg
   xmlns:dc="http://purl.org/dc/elements/1.1/"
   xmlns:cc="http://creativecommons.org/ns#"
   xmlns:rdf="http://www.w3.org/1999/02/22-rdf-syntax-ns#"
   xmlns:svg="http://www.w3.org/2000/svg"
   xmlns="http://www.w3.org/2000/svg"
   xmlns:sodipodi="http://sodipodi.sourceforge.net/DTD/sodipodi-0.dtd"
   xmlns:inkscape="http://www.inkscape.org/namespaces/inkscape"
   version="1.1"
   viewBox="0 0 1512.3927 755.90552"
   enable-background="new 0 0 512 512"
   id="svg5842"
   sodipodi:docname="24horas.svg"
   width="400.15387mm"
   height="200mm"
   inkscape:version="0.92.2 (5c3e80d, 2017-08-06)">
  <metadata
     id="metadata5848">
    <rdf:RDF>
      <cc:Work
         rdf:about="">
        <dc:format>image/svg+xml</dc:format>
        <dc:type
           rdf:resource="http://purl.org/dc/dcmitype/StillImage" />
        <dc:title></dc:title>
      </cc:Work>
    </rdf:RDF>
  </metadata>
  <defs
     id="defs5846" />
  <sodipodi:namedview
     pagecolor="#ffffff"
     bordercolor="#666666"
     borderopacity="1"
     objecttolerance="10"
     gridtolerance="10"
     guidetolerance="10"
     inkscape:pageopacity="0"
     inkscape:pageshadow="2"
     inkscape:window-width="1853"
     inkscape:window-height="1025"
     id="namedview5844"
     showgrid="false"
     units="mm"
     inkscape:zoom="0.4609375"
     inkscape:cx="269.09531"
     inkscape:cy="548.17502"
     inkscape:window-x="67"
     inkscape:window-y="27"
     inkscape:window-maximized="1"
     inkscape:current-layer="svg5842"
     fit-margin-top="0"
     fit-margin-left="0"
     fit-margin-right="0"
     fit-margin-bottom="0" />
  <g
     id="g5840"
     transform="translate(517.99388,126.88596)">
    <g
       id="g5838">
      <path
         d="m 478,63 c -11,-1 -20.8,7.2 -21.8,18.3 l -2.1,24.2 C 379.5,9.5 243,-18.4 135.8,45.2 19.5,114 -19,264.6 49.9,380.9 c 33.4,56.3 86.7,96.3 150.1,112.5 79.3,20.3 147.3,-3.9 185.7,-26.6 9.6,-5.7 12.7,-18 7.1,-27.6 -5.7,-9.6 -18,-12.7 -27.6,-7 C 318.1,460 262.9,467.9 210,454.4 157,440.9 112.4,407.5 84.5,360.4 26.9,263.3 59.1,137.4 156.2,79.8 249,24.8 367.9,51.9 428.6,139.1 l -37.4,-3.3 c -11.1,-1 -20.8,7.2 -21.8,18.3 -1,11.1 7.2,20.8 18.3,21.8 0,0 80.9,7.1 81.5,7.1 4.7,0 9.3,-1.6 12.9,-4.7 4.1,-3.4 6.6,-8.3 7.1,-13.7 l 7,-79.7 C 497.2,73.7 489,64 478,63 Z"
         id="path5832"
         inkscape:connector-curvature="0" />
      <path
         d="m 197.2,273.8 c 9.2,-8.4 15.5,-14.8 19,-19.3 5.3,-6.7 9.2,-13.2 11.6,-19.4 2.4,-6.2 3.7,-12.6 3.7,-19.5 0,-12 -4.3,-22 -12.8,-30 -8.5,-8.1 -20.3,-12.1 -35.2,-12.1 -13.6,0 -25,3.5 -34.1,10.4 -9.1,7 -14.5,18.4 -16.2,34.4 l 28.9,2.9 c 0.5,-8.5 2.6,-14.5 6.2,-18.2 3.6,-3.6 8.4,-5.5 14.5,-5.5 6.1,0 10.9,1.7 14.4,5.2 3.5,3.5 5.2,8.5 5.2,14.9 0,5.9 -2,11.8 -6,17.8 -3,4.3 -11,12.6 -24.1,24.8 -16.2,15.1 -27.1,27.2 -32.6,36.3 -5.5,9.1 -8.8,18.8 -9.9,29 h 101.7 v -26.9 h -57.6 c 1.5,-2.6 3.5,-5.3 5.9,-8 2.5,-2.8 8.3,-8.4 17.4,-16.8 z"
         id="path5834"
         inkscape:connector-curvature="0" />
      <path
         d="M 336.1,325.5 V 295 h 18.8 v -25.5 h -18.8 v -96 h -24.4 l -65.6,96.1 V 295 H 308 v 30.5 z M 273.2,269.6 308,217.9 v 51.7 z"
         id="path5836"
         inkscape:connector-curvature="0" />
    </g>
  </g>
</svg>
