<?xml version="1.0" encoding="UTF-8" standalone="no"?>
<!-- Created with Inkscape (http://www.inkscape.org/) -->

<svg
   xmlns:dc="http://purl.org/dc/elements/1.1/"
   xmlns:cc="http://creativecommons.org/ns#"
   xmlns:rdf="http://www.w3.org/1999/02/22-rdf-syntax-ns#"
   xmlns:svg="http://www.w3.org/2000/svg"
   xmlns="http://www.w3.org/2000/svg"
   xmlns:sodipodi="http://sodipodi.sourceforge.net/DTD/sodipodi-0.dtd"
   xmlns:inkscape="http://www.inkscape.org/namespaces/inkscape"
   width="400"
   height="200"
   viewBox="0 0 105.83333 52.916668"
   version="1.1"
   id="svg8"
   inkscape:version="0.92.2 (5c3e80d, 2017-08-06)"
   sodipodi:docname="camara.svg">
  <defs
     id="defs2" />
  <sodipodi:namedview
     id="base"
     pagecolor="#ffffff"
     bordercolor="#666666"
     borderopacity="1.0"
     inkscape:pageopacity="0.0"
     inkscape:pageshadow="2"
     inkscape:zoom="0.9899495"
     inkscape:cx="-167.28893"
     inkscape:cy="171.73613"
     inkscape:document-units="mm"
     inkscape:current-layer="layer2"
     showgrid="false"
     inkscape:window-width="1853"
     inkscape:window-height="1025"
     inkscape:window-x="67"
     inkscape:window-y="27"
     inkscape:window-maximized="1"
     units="px" />
  <metadata
     id="metadata5">
    <rdf:RDF>
      <cc:Work
         rdf:about="">
        <dc:format>image/svg+xml</dc:format>
        <dc:type
           rdf:resource="http://purl.org/dc/dcmitype/StillImage" />
        <dc:title></dc:title>
      </cc:Work>
    </rdf:RDF>
  </metadata>
  <g
     inkscape:groupmode="layer"
     id="layer2"
     inkscape:label="camera"
     style="display:inline"
     transform="translate(0,-244.08331)">
    <path
       style="fill:#000000;fill-opacity:1;stroke-width:0.18690014"
       d="m 73.20611,255.9381 c -1.67951,0.0209 -3.381148,0.3226 -5.040006,0.92674 -2.000416,0.72854 -3.522255,1.69778 -5.234388,3.33354 -3.902575,3.7285 -5.495741,9.34684 -4.140094,14.60121 1.402643,5.43657 5.861544,9.68477 11.479022,10.93694 1.555639,0.34677 5.433739,0.24231 7.008755,-0.18891 4.12749,-1.13005 7.773211,-4.16983 9.622801,-8.02338 0.984759,-2.0517 1.313853,-3.38145 1.43981,-5.81809 0.174464,-3.37515 -0.572785,-6.18797 -2.379693,-8.95587 -2.879159,-4.4105 -7.717674,-6.87502 -12.756207,-6.81218 z m 0.258722,2.04376 c 5.939565,-0.012 11.301683,4.32529 12.608367,10.19856 0.466978,2.09899 0.302226,5.1004 -0.383837,6.99288 -1.395321,3.84892 -4.16726,6.65699 -7.958499,8.06253 -1.382317,0.51246 -1.855948,0.59175 -3.909024,0.65406 -3.238242,0.0983 -5.164114,-0.42926 -7.700866,-2.10975 -3.505718,-2.32239 -5.76108,-6.51815 -5.752656,-10.70177 0.0074,-3.65508 1.270363,-6.71583 3.825521,-9.27099 1.261687,-1.26169 1.872317,-1.70858 3.298495,-2.41254 2.041245,-1.00758 3.736433,-1.40821 5.972499,-1.41298 z m -33.974664,5.9777 -8.860051,3.9e-4 c -8.511352,6.7e-4 -8.884055,0.0152 -9.469212,0.37207 -0.335023,0.20426 -0.776138,0.64538 -0.980404,0.9804 -0.349158,0.57267 -0.371518,0.95062 -0.371518,6.3098 0,6.44718 -0.0178,6.35952 1.515643,7.47035 l 0.781913,0.56644 h 8.66211 8.662383 l 0.760285,-0.68691 c 1.314303,-1.1874 1.296762,-1.08886 1.296072,-7.29376 -8.06e-4,-6.21376 0.0031,-6.19333 -1.35603,-7.22997 z m 11.474645,1.68183 -1.638843,1.40175 -1.639117,1.40175 h -1.328105 -1.328104 l 0.05092,3.31766 0.05092,3.31739 1.298263,0.0561 1.298262,0.0561 1.547675,1.4858 1.547676,1.4858 h 1.673067 c 1.271832,0 1.743575,-0.0705 1.966829,-0.29377 0.253963,-0.25394 0.293766,-1.05255 0.293766,-5.89967 0,-3.50689 -0.07254,-5.74114 -0.193561,-5.9673 -0.169557,-0.31679 -0.404003,-0.36166 -1.896471,-0.36166 z m -26.907868,0.84077 c 0.757075,-0.0166 1.488224,0.49905 1.738226,1.42749 0.264879,0.98369 0.04261,8.18418 -0.265566,8.60215 -0.114634,0.15548 -0.39202,0.38034 -0.616552,0.49992 -0.658807,0.3509 -1.487646,0.257 -2.058,-0.23326 l -0.524288,-0.45064 -0.0564,-4.30162 -0.0564,-4.30135 0.546737,-0.6119 c 0.374532,-0.41917 0.837995,-0.62079 1.292239,-0.63079 z M 62.83589,267.882 c -0.344965,-0.001 -0.600085,1.25156 -0.600944,3.18707 -0.0019,3.22355 1.010931,5.68415 3.266735,7.9366 1.489678,1.48745 2.993329,2.3622 4.993466,2.90452 2.721629,0.73791 6.12534,0.26816 8.610912,-1.18848 3.749648,-2.19745 5.966352,-6.75673 5.360873,-11.02592 -0.217185,-1.53139 -0.396184,-1.81824 -0.875271,-1.40367 -0.944122,0.81697 -2.569914,0.91202 -3.938045,0.23025 l -0.969724,-0.48322 -0.652145,0.403 c -0.358649,0.22166 -1.113034,0.45055 -1.676351,0.50869 -0.858419,0.0886 -1.185413,0.0266 -2.019944,-0.38165 l -0.995738,-0.48706 -0.911958,0.46187 c -1.186707,0.60079 -2.383844,0.60932 -3.484394,0.0252 l -0.822159,-0.43641 -0.823528,0.43641 c -0.524123,0.27766 -1.135924,0.43495 -1.682101,0.43229 -0.856018,-0.004 -2.286679,-0.51938 -2.528627,-0.91086 -0.08717,-0.14104 -0.171449,-0.20825 -0.251057,-0.20862 z"
       id="path1187"
       inkscape:connector-curvature="0" />
  </g>
</svg>
