<?xml version="1.0" encoding="UTF-8" standalone="no"?>
<!-- Created with Inkscape (http://www.inkscape.org/) -->

<svg
   xmlns:dc="http://purl.org/dc/elements/1.1/"
   xmlns:cc="http://creativecommons.org/ns#"
   xmlns:rdf="http://www.w3.org/1999/02/22-rdf-syntax-ns#"
   xmlns:svg="http://www.w3.org/2000/svg"
   xmlns="http://www.w3.org/2000/svg"
   xmlns:sodipodi="http://sodipodi.sourceforge.net/DTD/sodipodi-0.dtd"
   xmlns:inkscape="http://www.inkscape.org/namespaces/inkscape"
   width="210mm"
   height="297mm"
   viewBox="0 0 210 297"
   version="1.1"
   id="svg8"
   inkscape:version="0.92.2 (5c3e80d, 2017-08-06)"
   sodipodi:docname="camara.svg">
  <defs
     id="defs2" />
  <sodipodi:namedview
     id="base"
     pagecolor="#ffffff"
     bordercolor="#666666"
     borderopacity="1.0"
     inkscape:pageopacity="0.0"
     inkscape:pageshadow="2"
     inkscape:zoom="0.49497475"
     inkscape:cx="305.46246"
     inkscape:cy="560"
     inkscape:document-units="mm"
     inkscape:current-layer="layer2"
     showgrid="false"
     inkscape:window-width="1853"
     inkscape:window-height="1025"
     inkscape:window-x="67"
     inkscape:window-y="27"
     inkscape:window-maximized="1" />
  <metadata
     id="metadata5">
    <rdf:RDF>
      <cc:Work
         rdf:about="">
        <dc:format>image/svg+xml</dc:format>
        <dc:type
           rdf:resource="http://purl.org/dc/dcmitype/StillImage" />
        <dc:title></dc:title>
      </cc:Work>
    </rdf:RDF>
  </metadata>
  <g
     inkscape:label="Capa 1"
     inkscape:groupmode="layer"
     id="layer1">
    <path
       style="fill:#000000;stroke-width:0.35277778"
       d=""
       id="path339"
       inkscape:connector-curvature="0" />
  </g>
  <g
     inkscape:groupmode="layer"
     id="layer2"
     inkscape:label="camera">
    <path
       style="fill:#000000;fill-opacity:1;stroke-width:0.48101544"
       d="m 156.69995,108.22585 c -4.32247,0.0539 -8.70189,0.83026 -12.97121,2.38511 -5.14837,1.87501 -9.06505,4.36948 -13.47148,8.57937 -10.04386,9.59585 -14.14411,24.05549 -10.65515,37.57839 3.60991,13.99183 15.08556,24.92521 29.54298,28.14785 4.00367,0.89246 13.98454,0.62363 18.03808,-0.48618 10.62271,-2.90836 20.00552,-10.73167 24.76572,-20.64937 2.53442,-5.28035 3.3814,-8.70265 3.70556,-14.97372 0.44901,-8.68646 -1.47415,-15.92568 -6.12449,-23.04928 -7.40995,-11.35107 -19.86259,-17.69388 -32.83001,-17.53217 z m 0.66586,5.25993 c 15.28636,-0.0309 29.08657,11.13179 32.44952,26.24752 1.20183,5.40207 0.77783,13.12664 -0.98787,17.99721 -3.59106,9.90579 -10.72506,17.13276 -20.48238,20.75013 -3.5576,1.31891 -4.77656,1.52297 -10.06046,1.68332 -8.3341,0.25288 -13.29062,-1.10475 -19.81933,-5.42974 -9.02249,-5.97702 -14.827,-16.77545 -14.80532,-27.5426 0.019,-9.40691 3.26947,-17.2842 9.84555,-23.86029 3.24714,-3.24714 4.81869,-4.39727 8.48917,-6.20904 5.25345,-2.59315 9.61627,-3.62424 15.37112,-3.63651 z m -87.438877,15.38451 -22.802667,10e-4 c -21.905237,0.002 -22.864444,0.0393 -24.370433,0.95757 -0.862234,0.52571 -1.997508,1.66099 -2.523217,2.52322 -0.89861,1.47384 -0.956158,2.44655 -0.956158,16.2392 0,16.59279 -0.04581,16.36717 3.900734,19.22605 l 2.012371,1.45785 h 22.293236 22.293936 l 1.956709,-1.76788 c 3.382555,-3.05595 3.337409,-2.80233 3.335634,-18.77158 -0.002,-15.99205 0.0079,-15.93945 -3.489946,-18.6074 z m 29.531714,4.32843 -4.217808,3.60762 -4.218514,3.60761 h -3.418076 -3.418075 l 0.131058,8.5385 0.131057,8.53779 3.341273,0.14444 3.341272,0.14445 3.983172,3.82393 3.983176,3.82393 h 4.305888 c 3.27325,0 4.48735,-0.18148 5.06193,-0.75605 0.65361,-0.65357 0.75605,-2.70892 0.75605,-15.18369 0,-9.02552 -0.18668,-14.77569 -0.49816,-15.35773 -0.43638,-0.81533 -1.03976,-0.9308 -4.88085,-0.9308 z m -69.251422,2.16387 c 1.948444,-0.0429 3.830166,1.28437 4.473584,3.67385 0.681706,2.53165 0.10965,21.06321 -0.683474,22.13892 -0.295027,0.40015 -1.008923,0.97885 -1.586788,1.28662 -1.695539,0.90307 -3.828679,0.66141 -5.296571,-0.60033 l -1.349335,-1.15979 -0.145149,-11.07087 -0.145148,-11.07017 1.40711,-1.5748 c 0.963916,-1.07882 2.156705,-1.5977 3.325771,-1.62343 z m 99.803415,3.60268 c -0.88782,-0.004 -1.54441,3.22107 -1.54662,8.2024 -0.005,8.29628 2.60178,14.62902 8.40743,20.42601 3.83391,3.8282 7.70378,6.07951 12.85143,7.47523 7.00452,1.89913 15.76448,0.69015 22.16147,-3.05873 9.65028,-5.65546 15.3553,-17.38944 13.79701,-28.37685 -0.55896,-3.94126 -1.01964,-4.67951 -2.25264,-3.61255 -2.42984,2.1026 -6.61406,2.34721 -10.13515,0.59258 l -2.49573,-1.24364 -1.67839,1.03719 c -0.92304,0.57048 -2.86456,1.15954 -4.31434,1.30917 -2.20927,0.22802 -3.05084,0.0686 -5.19863,-0.98223 l -2.56268,-1.25351 -2.34706,1.18868 c -3.05417,1.54622 -6.13518,1.56817 -8.96761,0.0648 l -2.11595,-1.12315 -2.11947,1.12315 c -1.34891,0.71459 -2.92347,1.1194 -4.32914,1.11258 -2.20309,-0.0105 -5.88511,-1.33672 -6.5078,-2.34424 -0.22434,-0.36299 -0.44125,-0.53596 -0.64613,-0.53692 z"
       id="path1187"
       inkscape:connector-curvature="0" />
  </g>
</svg>
