<?xml version="1.0" encoding="UTF-8" standalone="no"?>
<!-- Created with Inkscape (http://www.inkscape.org/) -->

<svg
   xmlns:dc="http://purl.org/dc/elements/1.1/"
   xmlns:cc="http://creativecommons.org/ns#"
   xmlns:rdf="http://www.w3.org/1999/02/22-rdf-syntax-ns#"
   xmlns:svg="http://www.w3.org/2000/svg"
   xmlns="http://www.w3.org/2000/svg"
   xmlns:sodipodi="http://sodipodi.sourceforge.net/DTD/sodipodi-0.dtd"
   xmlns:inkscape="http://www.inkscape.org/namespaces/inkscape"
   version="1.1"
   id="svg5937"
   width="400"
   height="297"
   viewBox="0 0 400 297"
   sodipodi:docname="industrial.svg"
   inkscape:version="0.92.2 (5c3e80d, 2017-08-06)">
  <metadata
     id="metadata5943">
    <rdf:RDF>
      <cc:Work
         rdf:about="">
        <dc:format>image/svg+xml</dc:format>
        <dc:type
           rdf:resource="http://purl.org/dc/dcmitype/StillImage" />
        <dc:title></dc:title>
      </cc:Work>
    </rdf:RDF>
  </metadata>
  <defs
     id="defs5941" />
  <sodipodi:namedview
     pagecolor="#ffffff"
     bordercolor="#666666"
     borderopacity="1"
     objecttolerance="10"
     gridtolerance="10"
     guidetolerance="10"
     inkscape:pageopacity="0"
     inkscape:pageshadow="2"
     inkscape:window-width="1853"
     inkscape:window-height="1025"
     id="namedview5939"
     showgrid="false"
     inkscape:zoom="1.6793786"
     inkscape:cx="291.19831"
     inkscape:cy="79.944289"
     inkscape:window-x="67"
     inkscape:window-y="27"
     inkscape:window-maximized="1"
     inkscape:current-layer="svg5937" />
  <path
     style="fill:#000000;stroke-width:0.75724733"
     d="m 342.77726,232.84511 c -19.333,-15.25496 -35.29199,-28.16226 -35.46441,-28.68286 -0.17243,-0.52061 0.0326,-0.94656 0.45579,-0.94656 0.65136,0 67.29349,51.97701 70.5057,54.99036 0.692,0.64917 0.83318,1.28499 0.37862,1.70526 -0.43889,0.40579 -14.59067,-10.27095 -35.8757,-27.0662 z m 9.78312,-5.11023 c -23.11497,-13.51262 -42.53837,-24.87687 -43.16309,-25.25388 -0.74909,-0.45206 -0.87801,-0.93039 -0.37862,-1.4047 0.84458,-0.80212 86.74262,48.82351 87.27522,50.42128 0.17217,0.51654 -0.14122,0.90915 -0.69661,0.87246 -0.55531,-0.0367 -19.92191,-11.12252 -43.0369,-24.63516 z m -165.62934,22.35957 c -1.75989,-0.87112 -3.87242,-2.6722 -4.69451,-4.00238 -0.82209,-1.33017 -5.25871,-14.33281 -9.85913,-28.89473 -4.60044,-14.56193 -8.67013,-27.17848 -9.04376,-28.03678 -0.37362,-0.85828 -9.66098,-8.8406 -20.63858,-17.73846 -32.23845,-26.13082 -31.8078,-25.6738 -32.89303,-34.90741 -0.74485,-6.33751 3.34326,-22.59887 8.60242,-34.21805 l 2.66348,-5.884502 -5.41335,-5.58282 c -4.70797,-4.85534 -5.41335,-5.94358 -5.41335,-8.35149 0,-3.79272 1.40268,-6.19534 6.34684,-10.87132 7.56538,-7.15503 15.43708,-9.65606 28.4724,-9.04641 15.07516,0.70506 24.78115,5.55416 26.19424,13.08665 1.06075,5.65428 -0.0622,11.97688 -3.13868,17.67289 -1.59016,2.94408 -2.9626,5.27736 -3.04985,5.18508 -0.0873,-0.0923 -0.70673,-3.87109 -1.37661,-8.39732 -1.39281,-9.41117 -2.51468,-11.77897 -6.69373,-14.12773 -6.81439,-3.82991 -15.69813,1.32112 -15.70371,9.10543 -0.002,2.51308 5.55825,41.545122 6.45649,45.325152 0.2331,0.98088 -0.14153,3.48566 -0.83262,5.56616 -1.05875,3.18759 -1.09396,3.93188 -0.22372,4.7306 0.56798,0.5213 9.23958,7.61649 19.27022,15.76708 10.03062,8.15059 18.75655,15.6125 19.39095,16.58204 0.6344,0.96952 5.50057,15.51772 10.81372,32.32931 8.44891,26.73353 9.61913,31.06278 9.33209,34.52413 -0.40852,4.92623 -2.76441,8.41993 -6.96379,10.32706 -4.07065,1.84866 -7.67159,1.80455 -11.60443,-0.14215 z m -67.66215,-0.89401 c -4.17693,-2.81484 -6.00094,-6.19052 -5.98369,-11.07404 0.0134,-3.82715 0.45586,-4.97288 4.52122,-11.71034 10.77197,-17.85231 15.06535,-37.92128 11.80842,-55.19738 -0.68736,-3.64608 -1.4594,-7.17559 -1.71565,-7.84336 -0.25625,-0.66776 6.22224,4.18958 14.39663,10.79409 l 14.86255,12.00822 -0.44057,5.30073 c -1.07927,12.98568 -5.29852,27.15928 -12.05918,40.50999 -7.95507,15.70936 -11.1083,18.93391 -18.5152,18.93391 -3.23894,0 -4.95868,-0.43074 -6.87453,-1.72182 z m -60.141854,0.16116 c -8.555763,-2.51135 -13.405317,-13.851 -9.551823,-22.33488 1.741957,-3.83512 7.080942,-8.48907 10.467392,-9.12438 11.54222,-2.16533 20.66598,4.78919 20.66598,15.75251 0,11.47911 -10.342012,19.00589 -21.581549,15.70675 z m 9.094709,-7.1021 c 6.222403,-2.59989 7.457843,-10.67258 2.349733,-15.35383 -3.248221,-2.97677 -7.057673,-3.30922 -10.922075,-0.95315 -2.443788,1.48992 -4.687228,5.37088 -4.687228,8.10848 0,2.47058 2.724716,6.49852 5.347426,7.9051 3.112108,1.66904 4.496851,1.72038 7.912144,0.2934 z m -47.755004,-0.73947 0.512448,-4.1015 -4.279185,-0.88836 c -3.995152,-0.8294 -7.1726708,-2.82716 -7.1726708,-4.50958 0,-1.30366 3.0009718,-3.56409 6.0813918,-4.58071 1.657205,-0.54694 3.151697,-0.85413 3.321093,-0.68266 0.712498,0.7212 -0.579121,4.47661 -1.539664,4.47661 -2.225391,0 -0.910337,1.36483 1.597108,1.65755 2.444506,0.28539 2.675198,0.13403 3.047551,-1.99957 0.221566,-1.26959 2.434989,-15.90632 4.918717,-32.52608 2.483729,-16.61976 4.605134,-30.29337 4.714235,-30.38583 0.109098,-0.0925 6.531501,-3.44733 14.272001,-7.45531 12.934858,-6.69758 14.420735,-7.28723 18.363248,-7.28723 h 4.289613 V 134.6848 116.13223 h 2.650367 2.650365 v 49.93237 49.93236 l -3.485907,-1.18777 c -10.59774,-3.61101 -22.90019,3.77955 -25.266637,15.17869 -0.917248,4.41834 -0.09548,10.06781 1.912219,13.14596 0.601652,0.92244 1.093914,1.85953 1.093914,2.08243 0,0.2229 -6.343347,0.40526 -14.096329,0.40526 H 19.95429 Z m 46.232768,-57.23552 c 0,-0.94742 -1.811967,-1.17088 -10.920641,-1.34677 -10.530754,-0.20337 -12.961388,0.21963 -11.825248,2.05795 0.354318,0.57329 4.077557,0.77618 11.633491,0.6339 9.279865,-0.17472 11.112398,-0.39652 11.112398,-1.34508 z m 0.234466,-7.38318 c -0.229503,-1.1917 -1.397163,-1.32518 -11.593177,-1.32518 -10.196012,0 -11.363673,0.1334 -11.593175,1.32518 -0.234276,1.21649 0.716612,1.32518 11.593175,1.32518 10.876565,0 11.827451,-0.10872 11.593177,-1.32518 z m 13.69368,45.09431 c -0.773104,-1.44454 -0.650966,-1.81592 0.919916,-2.797 6.330988,-3.95401 12.686092,-13.05652 15.388352,-22.04093 3.557077,-11.82651 4.432077,-33.4846 2.27922,-56.41493 -2.04717,-21.80463 -2.23193,-29.44243 -0.80269,-33.18483 2.151317,-5.63315 6.386557,-8.367542 14.423277,-9.312102 4.57668,-0.5379 4.56842,-0.54339 3.48222,2.313512 -0.60169,1.58257 -1.23748,1.94242 -3.43194,1.94242 -6.04294,0 -10.52824,3.68087 -11.36848,9.32958 -0.25894,1.74075 0.29382,11.00251 1.22834,20.5817 1.96554,20.14756 2.32243,44.30091 0.79442,53.76457 -2.72629,16.88525 -8.897207,29.01131 -17.924515,35.22225 -1.807821,1.24381 -3.469131,2.26148 -3.691802,2.26148 -0.222671,0 -0.806015,-0.74956 -1.296318,-1.66572 z M 295.00959,197.61317 c -4.78959,-2.5581 -8.65371,-4.98495 -8.58692,-5.39295 0.15809,-0.96593 -41.38461,-27.2843 -42.8095,-27.12094 -0.99078,0.11357 -28.81003,-16.94704 -30.90556,-18.95336 -0.60935,-0.58341 -0.73102,-2.14858 -0.37863,-4.87067 l 0.51926,-4.01099 16.84875,10.68461 c 9.26683,5.87656 16.85349,11.08912 16.85927,11.58348 0.0125,1.12725 41.59824,27.44904 43.09013,27.27446 0.99624,-0.11653 15.44175,10.40668 16.38865,11.9388 0.47604,0.77023 -0.99066,3.75657 -1.77582,3.61576 -0.2977,-0.0534 -4.46005,-2.19009 -9.24963,-4.7482 z M 177.77325,141.88963 c -12.62745,-3.6963 -23.73512,-7.22907 -24.68367,-7.8506 -0.94856,-0.62152 -2.09321,-2.09352 -2.54366,-3.27112 -0.45045,-1.17759 -2.25537,-12.13826 -4.01096,-24.35703 -2.98994,-20.809852 -3.11758,-22.371962 -2.01654,-24.680822 0.71494,-1.49929 2.30309,-3.00001 4.05404,-3.83088 2.57902,-1.22383 3.18987,-1.25592 5.86907,-0.30834 5.00256,1.76929 5.41649,2.93767 8.42295,23.775022 1.50231,10.41214 2.97,19.13055 3.26155,19.37427 0.29157,0.24372 9.18994,2.95342 19.77417,6.02155 13.26901,3.84641 19.90305,6.13296 21.36649,7.36437 2.76636,2.32773 3.46699,6.01596 1.80727,9.51358 -1.20207,2.53317 -4.96377,5.10893 -7.32024,5.0124 -0.5618,-0.023 -11.35299,-3.06609 -23.98047,-6.7624 z m 5.16373,-18.62893 c -6.03904,-1.83505 -11.88128,-3.54356 -12.98272,-3.79667 -1.83095,-0.42075 -2.07117,-0.92192 -2.80202,-5.84611 -0.43967,-2.96224 -0.72916,-5.45611 -0.64335,-5.54193 0.0858,-0.0858 6.28778,3.7606 13.7821,8.54759 7.49435,4.787 14.13721,9.00972 14.76195,9.38384 2.29403,1.3738 -1.05179,0.6153 -12.11596,-2.74672 z m -0.65749,-53.371222 c -5.25265,-1.04515 -9.64625,-3.56052 -13.28151,-7.6038 -4.50276,-5.00815 -6.03626,-9.738841 -5.58815,-17.238806 0.54436,-9.111014 4.60524,-15.253927 12.92654,-19.554044 5.30078,-2.739227 14.22568,-2.958057 19.60684,-0.480739 4.85238,2.233884 10.07689,7.238973 11.73105,11.238369 0.9941,2.403487 2.21866,3.793998 4.41093,5.008654 11.09311,6.146282 17.8153,14.883136 13.30742,17.295676 -6.99678,3.74456 -30.97517,-7.411885 -37.28796,-17.348985 -1.52134,-2.394765 -2.13868,-2.92938 -2.13868,-1.852061 0,3.711961 6.98085,12.022002 15.15255,18.037665 l 4.53923,3.341591 -1.94155,2.3074 c -2.42927,2.88701 -10.21822,6.66774 -14.72124,7.14562 -1.87419,0.1989 -4.89615,0.0654 -6.71547,-0.29654 z"
     id="path5947"
     inkscape:connector-curvature="0" />
</svg>
