<?xml version="1.0" encoding="UTF-8" standalone="no"?>
<!-- Created with Inkscape (http://www.inkscape.org/) -->

<svg
   xmlns:dc="http://purl.org/dc/elements/1.1/"
   xmlns:cc="http://creativecommons.org/ns#"
   xmlns:rdf="http://www.w3.org/1999/02/22-rdf-syntax-ns#"
   xmlns:svg="http://www.w3.org/2000/svg"
   xmlns="http://www.w3.org/2000/svg"
   xmlns:sodipodi="http://sodipodi.sourceforge.net/DTD/sodipodi-0.dtd"
   xmlns:inkscape="http://www.inkscape.org/namespaces/inkscape"
   version="1.1"
   id="svg5937"
   width="400"
   height="200"
   viewBox="0 0 400 200"
   sodipodi:docname="industrial.svg"
   inkscape:version="0.92.2 (5c3e80d, 2017-08-06)">
  <metadata
     id="metadata5943">
    <rdf:RDF>
      <cc:Work
         rdf:about="">
        <dc:format>image/svg+xml</dc:format>
        <dc:type
           rdf:resource="http://purl.org/dc/dcmitype/StillImage" />
        <dc:title></dc:title>
      </cc:Work>
    </rdf:RDF>
  </metadata>
  <defs
     id="defs5941" />
  <sodipodi:namedview
     pagecolor="#ffffff"
     bordercolor="#666666"
     borderopacity="1"
     objecttolerance="10"
     gridtolerance="10"
     guidetolerance="10"
     inkscape:pageopacity="0"
     inkscape:pageshadow="2"
     inkscape:window-width="1853"
     inkscape:window-height="1025"
     id="namedview5939"
     showgrid="false"
     inkscape:zoom="1.6793786"
     inkscape:cx="165.66466"
     inkscape:cy="42.866773"
     inkscape:window-x="67"
     inkscape:window-y="27"
     inkscape:window-maximized="1"
     inkscape:current-layer="svg5937"
     fit-margin-top="0"
     fit-margin-left="0"
     fit-margin-right="0"
     fit-margin-bottom="0" />
  <path
     style="fill:#000000;stroke-width:0.45927581"
     d="m 287.86443,156.78174 c -11.72561,-9.25224 -21.40485,-17.08061 -21.50942,-17.39636 -0.10458,-0.31576 0.0198,-0.57409 0.27644,-0.57409 0.39506,0 40.81397,31.52441 42.76221,33.35203 0.4197,0.39373 0.50533,0.77936 0.22963,1.03426 -0.26619,0.24611 -8.84934,-6.22941 -21.75886,-16.41584 z m 5.93352,-3.09939 c -14.01939,-8.1955 -25.79982,-15.088 -26.17871,-15.31666 -0.45433,-0.27418 -0.53252,-0.56429 -0.22964,-0.85196 0.51225,-0.48649 52.61002,29.6118 52.93303,30.58086 0.10443,0.31328 -0.0856,0.55141 -0.42249,0.52916 -0.3368,-0.0223 -12.08278,-6.7459 -26.10219,-14.9414 z M 193.3426,167.24358 c -1.06739,-0.52834 -2.34865,-1.62071 -2.84726,-2.42747 -0.4986,-0.80676 -3.18944,-8.69295 -5.97963,-17.52486 -2.79019,-8.83191 -5.25849,-16.48394 -5.4851,-17.0045 -0.2266,-0.52056 -5.85945,-5.36189 -12.51744,-10.7585 -19.55285,-15.84852 -19.29165,-15.57134 -19.94985,-21.171587 -0.45176,-3.843741 2.0277,-13.706368 5.21742,-20.75348 l 1.61542,-3.568992 -3.28323,-3.38602 c -2.85542,-2.944797 -3.28324,-3.604822 -3.28324,-5.065237 0,-2.300311 0.85074,-3.757517 3.8494,-6.593532 4.58846,-4.339576 9.3627,-5.856469 17.26871,-5.486712 9.1432,0.427624 15.02994,3.368638 15.88699,7.937146 0.64335,3.429361 -0.0377,7.264061 -1.90363,10.718732 -0.96444,1.785605 -1.79683,3.200755 -1.84975,3.144787 -0.053,-0.05598 -0.42864,-2.347843 -0.83493,-5.093033 -0.84474,-5.707941 -1.52516,-7.144028 -4.05979,-8.568568 -4.13297,-2.322867 -9.52103,0.801269 -9.52441,5.522508 -9.5e-4,1.5242 3.37111,25.197405 3.91591,27.490022 0.14137,0.594911 -0.0858,2.114076 -0.50499,3.375913 -0.64214,1.933296 -0.6635,2.384713 -0.13569,2.869143 0.34449,0.31617 5.60387,4.61945 11.68753,9.56284 6.08363,4.94339 11.37597,9.46909 11.76073,10.05712 0.38478,0.58802 3.33615,9.4116 6.55861,19.60796 5.12432,16.21406 5.83407,18.83979 5.65997,20.93913 -0.24777,2.98778 -1.67663,5.10674 -4.22359,6.26343 -2.46888,1.12122 -4.65287,1.09447 -7.03816,-0.0862 z m -41.03757,-0.54222 c -2.53334,-1.70722 -3.63961,-3.75459 -3.62915,-6.71649 0.008,-2.32118 0.27648,-3.01608 2.74215,-7.1024 6.53328,-10.82755 9.13724,-22.99952 7.16189,-33.47759 -0.41689,-2.21138 -0.88514,-4.35205 -1.04055,-4.75706 -0.15542,-0.405 3.77383,2.54101 8.73165,6.54669 l 9.01425,7.28307 -0.26722,3.21493 c -0.65458,7.87591 -3.21358,16.4723 -7.31397,24.5696 -4.82481,9.52783 -6.73726,11.48354 -11.2296,11.48354 -1.96444,0 -3.00747,-0.26124 -4.16945,-1.04429 z m -36.47646,0.0977 c -5.18913,-1.52315 -8.13042,-8.40072 -5.79325,-13.54626 1.05651,-2.32602 4.29464,-5.14868 6.34855,-5.534 7.00043,-1.31328 12.53406,2.90468 12.53406,9.55401 0,6.96216 -6.2725,11.52721 -13.08936,9.52625 z m 5.51601,-4.30747 c 3.77392,-1.57686 4.52323,-6.47299 1.42512,-9.3122 -1.97006,-1.80544 -4.28052,-2.00707 -6.62431,-0.57809 -1.48218,0.90364 -2.84283,3.25747 -2.84283,4.91784 0,1.49843 1.65255,3.9414 3.24324,4.7945 1.88752,1.01229 2.72738,1.04343 4.79878,0.17795 z m -28.963751,-0.44849 0.310804,-2.48759 -2.595356,-0.5388 c -2.423087,-0.50303 -4.350275,-1.71469 -4.350275,-2.73509 0,-0.79068 1.820111,-2.16164 3.688407,-2.77824 1.005106,-0.33172 1.911526,-0.51803 2.014266,-0.41403 0.432135,0.43741 -0.351241,2.71509 -0.933817,2.71509 -1.349715,0 -0.552126,0.82778 0.968657,1.00532 1.48261,0.17309 1.622527,0.0813 1.848361,-1.21275 0.134382,-0.77001 1.476839,-9.6473 2.983237,-19.7273 1.506399,-10.08 2.793046,-18.37315 2.859217,-18.42921 0.06617,-0.0561 3.9614,-2.09084 8.65607,-4.52171 7.84508,-4.06212 8.74628,-4.41975 11.13744,-4.41975 h 2.60168 V 97.246828 85.994567 h 1.60747 1.60746 v 30.284323 30.28433 l -2.11422,-0.7204 c -6.42761,-2.1901 -13.88913,2.29233 -15.3244,9.20598 -0.55632,2.67976 -0.0579,6.1062 1.15977,7.97312 0.36491,0.55947 0.66347,1.12782 0.66347,1.26301 0,0.13519 -3.84729,0.2458 -8.54952,0.2458 h -8.549525 z m 28.040501,-34.71375 c 0,-0.57461 -1.09897,-0.71015 -6.62345,-0.81683 -6.38697,-0.12334 -7.86117,0.13321 -7.17209,1.24817 0.21489,0.3477 2.47306,0.47075 7.0558,0.38446 5.6283,-0.10596 6.73974,-0.24049 6.73974,-0.8158 z m 0.1422,-4.47795 c -0.13919,-0.72277 -0.84739,-0.80373 -7.03134,-0.80373 -6.18395,0 -6.89215,0.0809 -7.03134,0.80373 -0.14209,0.73781 0.43463,0.80374 7.03134,0.80374 6.59671,0 7.17344,-0.0659 7.03134,-0.80374 z m 8.30531,27.35002 c -0.46888,-0.87613 -0.39481,-1.10138 0.55795,-1.6964 3.83978,-2.39813 7.69419,-7.91887 9.33313,-13.36799 2.15739,-7.17285 2.68809,-20.30864 1.38237,-34.21604 -1.24162,-13.224651 -1.35368,-17.857038 -0.48684,-20.126821 1.30479,-3.41655 3.8735,-5.074977 8.74782,-5.64786 2.77579,-0.326241 2.77078,-0.32957 2.112,1.403161 -0.36493,0.95984 -0.75054,1.178091 -2.0815,1.178091 -3.66508,0 -6.38546,2.232477 -6.89506,5.658457 -0.15705,1.055775 0.17819,6.673095 0.74499,12.482939 1.19211,12.219633 1.40857,26.868813 0.48182,32.608583 -1.65351,10.24103 -5.39622,17.59557 -10.87134,21.36254 -1.09646,0.75438 -2.10405,1.37161 -2.23911,1.37161 -0.13505,0 -0.48885,-0.45461 -0.78623,-1.01027 z m 130.02415,-14.78814 c -2.90491,-1.5515 -5.24853,-3.02341 -5.20802,-3.27086 0.0959,-0.58585 -25.10006,-16.54813 -25.96426,-16.44905 -0.60092,0.0689 -17.47349,-10.27849 -18.74444,-11.49534 -0.36958,-0.35384 -0.44337,-1.30313 -0.22965,-2.95409 l 0.31494,-2.432692 10.21888,6.480292 c 5.62041,3.56417 10.22177,6.72562 10.22527,7.02546 0.008,0.68368 25.22963,16.64803 26.13447,16.54214 0.60423,-0.0707 9.36553,6.31173 9.93983,7.24097 0.28872,0.46715 -0.60084,2.27839 -1.07705,2.19298 -0.18055,-0.0324 -2.70504,-1.3283 -5.60997,-2.87981 z m -71.10465,-33.79671 c -7.65864,-2.241836 -14.39552,-4.384489 -14.97083,-4.761451 -0.5753,-0.376953 -1.26954,-1.269734 -1.54274,-1.983955 -0.27321,-0.714211 -1.3679,-7.361939 -2.43267,-14.772708 -1.81343,-12.62132 -1.89084,-13.56875 -1.22305,-14.96909 0.43361,-0.90933 1.39683,-1.819527 2.4588,-2.323455 1.5642,-0.742262 1.93468,-0.761725 3.55964,-0.18701 3.03408,1.073086 3.28513,1.781717 5.10858,14.419717 0.91115,6.315041 1.80131,11.602817 1.97815,11.750628 0.17684,0.14782 5.57376,1.791268 11.99316,3.652112 8.04776,2.332872 12.07134,3.719687 12.95893,4.466543 1.67782,1.411781 2.10275,3.648719 1.09612,5.770059 -0.72906,1.53638 -3.01056,3.09859 -4.43977,3.04005 -0.34074,-0.0139 -6.88568,-1.85961 -14.54432,-4.10144 z m 3.13183,-11.298576 c -3.66272,-1.112969 -7.20608,-2.149198 -7.87411,-2.302705 -1.11048,-0.255194 -1.25618,-0.559151 -1.69945,-3.545709 -0.26666,-1.796621 -0.44223,-3.309166 -0.39019,-3.361224 0.052,-0.05201 3.81358,2.280834 8.35894,5.184174 4.54538,2.903351 8.57432,5.46446 8.95322,5.691363 1.39135,0.833217 -0.63792,0.373181 -7.34841,-1.665899 z M 190.5214,57.947971 c -3.18577,-0.63389 -5.85052,-2.15948 -8.05533,-4.611758 -2.73096,-3.037478 -3.66103,-5.906675 -3.38925,-10.455457 0.33016,-5.525894 2.79311,-9.251614 7.84004,-11.859666 3.21495,-1.661359 8.62797,-1.794081 11.89168,-0.291571 2.94301,1.354866 6.11171,4.390488 7.11497,6.81615 0.60293,1.457731 1.34563,2.301086 2.67525,3.037784 6.72805,3.727763 10.80511,9.026726 8.07105,10.489949 -4.24359,2.271102 -18.78666,-4.495361 -22.61541,-10.522281 -0.9227,-1.452442 -1.29712,-1.77669 -1.29712,-1.123289 0,2.251331 4.23393,7.291429 9.19013,10.939971 l 2.75307,2.026699 -1.17756,1.399454 c -1.47338,1.750992 -6.19743,4.044031 -8.92854,4.333869 -1.13671,0.120634 -2.96955,0.03966 -4.07298,-0.179854 z"
     id="path5947"
     inkscape:connector-curvature="0" />
</svg>
