<?xml version="1.0" encoding="UTF-8" standalone="no"?>
<!-- Created with Inkscape (http://www.inkscape.org/) -->

<svg
   xmlns:dc="http://purl.org/dc/elements/1.1/"
   xmlns:cc="http://creativecommons.org/ns#"
   xmlns:rdf="http://www.w3.org/1999/02/22-rdf-syntax-ns#"
   xmlns:svg="http://www.w3.org/2000/svg"
   xmlns="http://www.w3.org/2000/svg"
   xmlns:sodipodi="http://sodipodi.sourceforge.net/DTD/sodipodi-0.dtd"
   xmlns:inkscape="http://www.inkscape.org/namespaces/inkscape"
   width="210mm"
   height="297mm"
   viewBox="0 0 210 297"
   version="1.1"
   id="svg623"
   inkscape:version="0.92.2 (5c3e80d, 2017-08-06)"
   sodipodi:docname="logo.svg">
  <defs
     id="defs617">
    <clipPath
       clipPathUnits="userSpaceOnUse"
       id="clipPath313">
      <path
         d="M 0,841.89 H 595.28 V 0 H 0 Z"
         id="path311"
         inkscape:connector-curvature="0" />
    </clipPath>
  </defs>
  <sodipodi:namedview
     id="base"
     pagecolor="#ffffff"
     bordercolor="#666666"
     borderopacity="1.0"
     inkscape:pageopacity="0.0"
     inkscape:pageshadow="2"
     inkscape:zoom="2.8"
     inkscape:cx="284.54561"
     inkscape:cy="812.8266"
     inkscape:document-units="mm"
     inkscape:current-layer="layer1"
     showgrid="false"
     inkscape:window-width="1853"
     inkscape:window-height="1025"
     inkscape:window-x="67"
     inkscape:window-y="27"
     inkscape:window-maximized="1" />
  <metadata
     id="metadata620">
    <rdf:RDF>
      <cc:Work
         rdf:about="">
        <dc:format>image/svg+xml</dc:format>
        <dc:type
           rdf:resource="http://purl.org/dc/dcmitype/StillImage" />
        <dc:title></dc:title>
      </cc:Work>
    </rdf:RDF>
  </metadata>
  <g
     inkscape:label="Capa 1"
     inkscape:groupmode="layer"
     id="layer1">
    <g
       transform="matrix(0.35277777,0,0,-0.35277777,57.227473,101.94807)"
       id="g315">
      <path
         inkscape:connector-curvature="0"
         id="path317"
         style="fill:#434342;fill-opacity:1;fill-rule:nonzero;stroke:none"
         d="m 0,0 c -23.57,0 -42.745,19.175 -42.745,42.745 0,9.702 3.348,19.207 9.427,26.766 l 1.91,2.374 1.909,-2.375 c 0.255,-0.317 0.516,-0.628 0.781,-0.937 l 1.318,-1.534 -1.258,-1.585 c -5.178,-6.525 -7.916,-14.378 -7.916,-22.709 0,-20.166 16.407,-36.574 36.574,-36.574 20.167,0 36.574,16.408 36.574,36.574 0,8.331 -2.737,16.184 -7.916,22.709 l -1.258,1.585 1.318,1.534 c 0.265,0.309 0.526,0.62 0.781,0.937 l 1.909,2.375 1.91,-2.374 C 39.397,61.953 42.745,52.447 42.745,42.745 42.745,19.175 23.57,0 0,0" />
    </g>
    <g
       transform="matrix(0.35277777,0,0,-0.35277777,57.363398,94.531487)"
       id="g319">
      <path
         inkscape:connector-curvature="0"
         id="path321"
         style="fill:#434342;fill-opacity:1;fill-rule:nonzero;stroke:none"
         d="m 0,0 c -11.535,0 -20.919,9.385 -20.919,20.919 0,4.749 1.638,9.402 4.613,13.1 l 2.015,2.505 2.012,-2.506 c 0.106,-0.132 0.214,-0.26 0.324,-0.388 l 1.39,-1.618 -1.326,-1.671 c -2.149,-2.708 -3.284,-5.966 -3.284,-9.422 0,-8.367 6.807,-15.174 15.175,-15.174 8.368,0 15.175,6.807 15.175,15.174 0,3.456 -1.135,6.714 -3.284,9.422 l -1.326,1.671 1.39,1.618 c 0.11,0.128 0.219,0.258 0.325,0.39 l 2.013,2.501 2.013,-2.502 c 2.975,-3.699 4.613,-8.351 4.613,-13.1 C 20.919,9.385 11.535,0 0,0" />
    </g>
    <g
       transform="matrix(0.35277777,0,0,-0.35277777,57.341667,71.76836)"
       id="g323">
      <path
         inkscape:connector-curvature="0"
         id="path325"
         style="fill:#29a94f;fill-opacity:1;fill-rule:nonzero;stroke:none"
         d="m 0,0 -19.208,-24.489 -0.09,-0.096 c -4.607,-4.913 -7.143,-11.322 -7.143,-18.049 0,-14.57 11.853,-26.423 26.423,-26.423 14.569,0 26.423,11.853 26.423,26.423 0,6.646 -2.478,12.995 -6.976,17.88 l -0.154,0.18 z m -0.018,-75.047 c -17.873,0 -32.413,14.541 -32.413,32.413 0,8.21 3.078,16.033 8.671,22.047 L 0,9.706 23.917,-20.786 c 5.467,-5.981 8.478,-13.735 8.478,-21.848 0,-17.872 -14.541,-32.413 -32.413,-32.413" />
    </g>
    <g
       transform="matrix(0.35277777,0,0,-0.35277777,78.863545,88.96042)"
       id="g327">
      <path
         inkscape:connector-curvature="0"
         id="path329"
         style="fill:#29a94f;fill-opacity:1;fill-rule:nonzero;stroke:none"
         d="m 0,0 h -9.075 l 2.829,13.289 H -2.07 L -4.12,3.683 h 4.917 z" />
    </g>
    <g
       transform="matrix(0.35277777,0,0,-0.35277777,81.890555,87.41356)"
       id="g331">
      <path
         inkscape:connector-curvature="0"
         id="path333"
         style="fill:#29a94f;fill-opacity:1;fill-rule:nonzero;stroke:none"
         d="m 0,0 -0.93,-4.385 h -4.158 l 0.987,4.594 -2.714,8.695 h 4.632 l 0.968,-4.48 2.867,4.48 h 4.917 z" />
    </g>
    <g
       transform="matrix(0.35277777,0,0,-0.35277777,86.277029,85.571637)"
       id="g335">
      <path
         inkscape:connector-curvature="0"
         id="path337"
         style="fill:#29a94f;fill-opacity:1;fill-rule:nonzero;stroke:none"
         d="M 0,0 H -0.874 L -2.146,-5.923 H -1.5 c 1.538,0 2.677,1.234 3.057,3.018 C 1.956,-1.044 1.367,0 0,0 M -2.031,-9.606 H -7.1 l 2.829,13.289 h 4.822 c 4.537,0 5.79,-3.475 5.088,-6.835 -0.722,-3.322 -3.399,-6.454 -7.67,-6.454" />
    </g>
    <g
       transform="matrix(0.35277777,0,0,-0.35277777,90.757377,88.96042)"
       id="g339">
      <path
         inkscape:connector-curvature="0"
         id="path341"
         style="fill:#434342;fill-opacity:1;fill-rule:nonzero;stroke:none"
         d="m 0,0 h -3.493 l -1.955,13.289 h 4.347 l 0.608,-7.005 3.607,7.005 h 4.48 z" />
    </g>
    <g
       transform="matrix(0.35277777,0,0,-0.35277777,94.949894,86.382285)"
       id="g343">
      <path
         inkscape:connector-curvature="0"
         id="path345"
         style="fill:#434342;fill-opacity:1;fill-rule:nonzero;stroke:none"
         d="m 0,0 c -0.038,0.57 -0.019,1.254 -0.019,1.254 0,0 -0.228,-0.665 -0.512,-1.254 l -1.102,-2.296 h 1.785 z m 0.55,-7.308 -0.17,1.935 h -3.588 l -0.95,-1.935 H -8.657 L -0.874,5.98 H 2.734 L 4.785,-7.308 Z" />
    </g>
    <g
       transform="matrix(0.35277777,0,0,-0.35277777,100.42141,88.96042)"
       id="g347">
      <path
         inkscape:connector-curvature="0"
         id="path349"
         style="fill:#434342;fill-opacity:1;fill-rule:nonzero;stroke:none"
         d="m 0,0 h -9.075 l 2.83,13.289 h 4.176 l -2.05,-9.606 h 4.916 z" />
    </g>
    <g
       transform="matrix(0.35277777,0,0,-0.35277777,104.97563,85.571637)"
       id="g351">
      <path
         inkscape:connector-curvature="0"
         id="path353"
         style="fill:#434342;fill-opacity:1;fill-rule:nonzero;stroke:none"
         d="m 0,0 h -4.898 l -0.285,-1.367 h 3.436 L -2.374,-4.31 H -5.81 l -0.341,-1.613 h 5.505 l -0.778,-3.683 h -9.682 l 2.828,13.289 h 9.056 z" />
    </g>
    <g
       transform="matrix(0.35277777,0,0,-0.35277777,109.20811,88.96042)"
       id="g355">
      <path
         inkscape:connector-curvature="0"
         id="path357"
         style="fill:#434342;fill-opacity:1;fill-rule:nonzero;stroke:none"
         d="M 0,0 H -3.645 L -6.171,6.473 -7.556,0 h -4.158 l 2.829,13.289 h 3.645 l 2.525,-6.493 1.386,6.493 h 4.158 z" />
    </g>
    <g
       transform="matrix(0.35277777,0,0,-0.35277777,113.55426,85.866559)"
       id="g359">
      <path
         inkscape:connector-curvature="0"
         id="path361"
         style="fill:#434342;fill-opacity:1;fill-rule:nonzero;stroke:none"
         d="m 0,0 c -0.417,0.589 -0.816,1.044 -1.576,1.044 -1.917,0 -3.075,-2.771 -3.075,-4.385 0,-0.987 0.38,-1.955 1.519,-1.955 0.835,0 1.537,0.531 2.126,1.063 L 1.633,-6.15 c -1.405,-1.577 -3.38,-2.81 -5.468,-2.81 -3.17,0 -4.993,2.259 -4.993,5.372 0,4.195 3.038,8.296 7.461,8.296 2.051,0 3.607,-1.158 4.651,-2.809 z" />
    </g>
    <g
       transform="matrix(0.35277777,0,0,-0.35277777,116.00529,88.96042)"
       id="g363">
      <path
         inkscape:connector-curvature="0"
         id="path365"
         style="fill:#434342;fill-opacity:1;fill-rule:nonzero;stroke:none"
         d="m 0,0 h -4.176 l 2.828,13.289 h 4.177 z" />
    </g>
    <g
       transform="matrix(0.35277777,0,0,-0.35277777,119.62194,86.382285)"
       id="g367">
      <path
         inkscape:connector-curvature="0"
         id="path369"
         style="fill:#434342;fill-opacity:1;fill-rule:nonzero;stroke:none"
         d="m 0,0 c -0.039,0.57 -0.02,1.254 -0.02,1.254 0,0 -0.227,-0.665 -0.512,-1.254 L -1.633,-2.296 H 0.152 Z M 0.55,-7.308 0.379,-5.373 H -3.209 L -4.158,-7.308 H -8.657 L -0.874,5.98 h 3.608 l 2.05,-13.288 z" />
    </g>
  </g>
</svg>
